<svg width="20" height="20" viewBox="0 0 20 20" fill="none" xmlns="http://www.w3.org/2000/svg">
<path d="M3.76817 10.1406L5.6666 9.44918C5.7252 9.42578 5.79551 9.41406 5.86578 9.41406H18.0298C18.358 9.41406 18.6158 9.67184 18.6158 10V18.2422C18.6158 19.2148 17.8307 20 16.858 20H5.13922C4.16653 20 3.38141 19.2148 3.38141 18.2422V10.6914C3.38141 10.4453 3.53379 10.2227 3.76817 10.1406Z" fill="#FC1A40"/>
<path d="M3.38141 10.6914V18.2422C3.38141 19.2148 4.16653 20 5.13922 20H10.9986V9.41406H5.86578C5.79547 9.41406 5.72516 9.42578 5.6666 9.44918L3.76817 10.1406C3.53379 10.2227 3.38141 10.4453 3.38141 10.6914Z" fill="#C60034"/>
<path d="M3.59235 3.81984C3.79153 3.01124 4.38922 2.37847 5.19782 2.12062C5.99469 1.87449 6.8502 2.05031 7.47126 2.61277L8.83067 3.80812L9.10016 2.01519C9.22907 1.19488 9.75641 0.50343 10.5415 0.175344C10.6939 0.116712 10.8462 0.0698366 10.9986 0.0463991C11.6431 -0.0825072 12.3111 0.0581178 12.8502 0.456594C13.565 0.972219 13.9282 1.83941 13.8111 2.70656C13.6822 3.57374 13.0962 4.31202 12.2642 4.60499L10.9986 5.06202L9.43997 5.63624C9.42825 5.63624 9.42825 5.63624 9.42825 5.63624L6.72122 6.6323C6.45172 6.72609 6.17047 6.773 5.90094 6.773C5.32665 6.773 4.76418 6.56199 4.31887 6.16359C3.66266 5.57765 3.38141 4.67527 3.59235 3.81984Z" fill="#FE9923"/>
<path d="M4.31891 6.16361C4.76422 6.56201 5.32672 6.77303 5.90098 6.77303C6.17047 6.77303 6.45172 6.72611 6.72125 6.63232L9.42828 5.63627C9.42828 5.63627 9.42828 5.63627 9.44 5.63627L10.9986 5.06205V0.0463867C10.8463 0.0698633 10.6939 0.116699 10.5416 0.175332C9.75645 0.503418 9.22906 1.19486 9.1002 2.01518L8.8307 3.80811L7.47129 2.61275C6.85024 2.05029 5.99473 1.87447 5.19785 2.12061C4.38926 2.37846 3.7916 3.01123 3.59239 3.81982C3.38141 4.67529 3.66266 5.57768 4.31891 6.16361Z" fill="#FE8821"/>
<path d="M1.37752 9.1445L2.17439 11.3476C2.26818 11.582 2.49084 11.7226 2.72521 11.7226C2.79553 11.7226 2.86584 11.7109 2.92439 11.6875L8.98303 9.48439L9.53377 7.66798L10.9986 7.99607L12.2876 8.28904L18.3463 6.08591C18.651 5.96876 18.8033 5.62888 18.6978 5.33591L17.8892 3.13286C17.7369 2.68755 17.4087 2.33591 16.9869 2.13673C16.565 1.93755 16.0845 1.91408 15.6392 2.07814L10.9986 3.76564L10.6821 3.88279C10.6821 3.88279 9.41654 6.1797 9.38135 6.1797C9.35787 6.1797 8.854 5.89845 8.36182 5.62888C7.86975 5.35935 7.37752 5.07814 7.37752 5.07814L2.43225 6.88279C1.98693 7.04685 1.63537 7.37501 1.43619 7.79689C1.23689 8.21872 1.2135 8.69923 1.37752 9.1445Z" fill="#FF3E75"/>
<path d="M1.3775 9.14449L2.17438 11.3476C2.26817 11.582 2.49082 11.7226 2.7252 11.7226C2.79551 11.7226 2.86582 11.7109 2.92438 11.6875L8.98301 9.48438L9.53375 7.66797L10.9986 7.99605V3.76562L10.6822 3.88277C10.6822 3.88277 9.41656 6.17969 9.38137 6.17969C9.35789 6.17969 8.85403 5.89844 8.36184 5.62887C7.86973 5.35934 7.3775 5.07812 7.3775 5.07812L2.43223 6.88277C1.98692 7.04684 1.63535 7.375 1.43617 7.79688C1.23688 8.21871 1.21348 8.69922 1.3775 9.14449Z" fill="#FC1A40"/>
<path d="M12.7564 9.41406V20H9.24078V9.41406H12.7564Z" fill="#FCBF29"/>
<path d="M10.6822 3.88281L10.9986 4.75L12.2877 8.2891L10.9986 8.75789L9.53379 9.28523L8.98305 9.48441L7.3775 5.07816L10.6822 3.88281Z" fill="#FCBF29"/>
<path d="M9.2406 9.41406H10.9984V20H9.2406V9.41406Z" fill="#FE9923"/>
<path d="M7.3775 5.07816L8.98301 9.48441L9.53375 9.2852L10.9986 8.75785V4.75L10.6822 3.88281L7.3775 5.07816Z" fill="#FE9923"/>
</svg>
