<svg width="115" height="27" viewBox="0 0 115 27" fill="none" xmlns="http://www.w3.org/2000/svg">
<path d="M24.9886 3.21457C24.8505 1.85331 24.3036 1.57895 23.2416 1.57895H18.7175C17.7246 1.57895 17.4856 1.74779 17.1086 2.83996L13.7156 13.8725L10.3226 2.83996C9.94555 1.74779 9.7066 1.57895 8.71364 1.57895H4.18428C3.12229 1.57895 2.57537 1.85331 2.43731 3.21457L0.0372224 24.8733C-0.0636662 25.6542 0.00536284 25.9655 0.690344 26.0657L5.86752 26.815C6.65339 26.9152 6.82862 26.7464 6.92951 26.166L8.06052 16.0199L10.4925 25.5223C10.7314 26.3032 11.0394 26.6145 11.8306 26.6145H15.6006C16.3865 26.6145 16.6998 26.3084 16.9387 25.5223L19.3388 16.0199L20.5017 26.166C20.6026 26.7464 20.7778 26.9152 21.5637 26.815L26.7409 26.0657C27.4258 25.9655 27.4949 25.6595 27.394 24.8733L24.9886 3.21457Z" fill="#103559"/>
<path d="M37.4541 7.36841C31.6439 7.36841 28.4862 11.3508 28.4862 16.8421C28.4862 22.3334 31.6439 26.3158 37.4541 26.3158C43.2643 26.3158 46.422 22.3334 46.422 16.8421C46.422 11.3508 43.2643 7.36841 37.4541 7.36841ZM37.4541 20.1193C36.0595 20.1193 35.3121 18.8125 35.3121 16.8369C35.3121 14.8613 36.0595 13.5546 37.4541 13.5546C38.8488 13.5546 39.5961 14.8613 39.5961 16.8369C39.5961 18.8125 38.8488 20.1193 37.4541 20.1193Z" fill="#103559"/>
<path d="M59.4518 7.37893C58.2608 7.37893 49.349 7.61557 48.7693 8.43068C48.5321 8.70414 48.5321 9.07751 48.5321 9.71908L48.8062 24.5173C48.8378 25.874 49.1487 26.3158 50.3345 26.3158H54.4874C55.6784 26.3158 56.0157 25.874 56.0157 24.5173V14.2995C56.5269 14.1312 56.6956 14.0628 57.2753 14.026C58.0553 13.9945 58.4294 14.2311 58.6719 14.8727C58.8405 15.5511 58.8774 16.5713 58.8774 17.9596L58.8458 24.512C58.8458 25.8688 59.22 26.3105 60.411 26.3105H64.664C65.8551 26.3105 66.1607 25.8688 66.1924 24.512L66.4664 15.4827C66.498 13.274 66.0237 11.2389 64.9012 9.74537C63.7101 8.25188 61.9394 7.36841 59.4571 7.36841L59.4518 7.37893Z" fill="#103559"/>
<path d="M75.414 9.47369H71.1391C69.9694 9.47369 69.633 9.87707 69.633 11.2339V24.5242C69.633 25.8758 69.9694 26.3158 71.1391 26.3158H75.4812C76.6509 26.3158 77.0183 25.8758 77.0183 24.5242L76.9511 11.2339C76.9511 9.91374 76.5836 9.47369 75.414 9.47369Z" fill="#103559"/>
<path d="M73.5894 0.526306C71.0576 0.526306 69.633 2.08541 69.633 4.21052C69.633 6.33563 71.0576 7.89473 73.5894 7.89473C76.1213 7.89473 77.5459 6.33563 77.5459 4.21052C77.5459 2.08541 76.1213 0.526306 73.5894 0.526306Z" fill="#103559"/>
<path d="M91.947 7.91969H89.3174V3.34406C89.3174 1.98871 88.9693 1.57895 87.7643 1.57895H83.6833C82.473 1.57895 82.0927 2.02023 82.0927 3.34406V7.91969H80.0201C78.8794 7.91969 78.6009 8.12457 78.6009 9.17523V12.8736C78.6009 13.9242 78.8794 14.1291 80.0201 14.1291H82.0927V20.5697C82.0927 24.9089 84.4063 26.8421 88.7658 26.8421C90.0458 26.8421 91.3257 26.7423 92.5361 26.5006C93.0556 26.4008 93.1948 26.2642 93.1948 25.7547L93.0234 20.5644C93.0234 20.1231 92.7825 19.955 92.3326 20.0548C91.9523 20.1546 91.5721 20.2229 91.0526 20.2229C90.0511 20.2229 89.3228 19.8815 89.3228 18.4263V14.1186H91.9523C93.0931 14.1186 93.3716 13.9137 93.3716 12.8631V9.16473C93.3716 8.11406 93.0931 7.90918 91.9523 7.90918L91.947 7.91969Z" fill="#103559"/>
<path d="M103.394 7.36841C97.5843 7.36841 94.4266 11.3508 94.4266 16.8421C94.4266 22.3334 97.5843 26.3158 103.394 26.3158C109.205 26.3158 112.362 22.3334 112.362 16.8421C112.362 11.3508 109.205 7.36841 103.394 7.36841ZM103.394 20.1193C102 20.1193 101.253 18.8125 101.253 16.8369C101.253 14.8613 102 13.5546 103.394 13.5546C104.789 13.5546 105.536 14.8613 105.536 16.8369C105.536 18.8125 104.789 20.1193 103.394 20.1193Z" fill="#103559"/>
<path d="M114.03 8.11046C113.421 7.67071 112.422 7.92479 111.792 8.67725C111.161 9.42972 111.145 10.3972 111.75 10.8369C112.359 11.2767 113.358 11.0226 113.988 10.2701C114.619 9.51767 114.634 8.55021 114.03 8.11046Z" fill="#103559"/>
<path d="M99.6851 6.83118C100.402 6.72115 100.871 5.81473 100.733 4.80352C100.594 3.79232 99.9075 3.0588 99.191 3.16882C98.4745 3.27885 98.0051 4.18527 98.1434 5.19648C98.2818 6.20769 98.9686 6.94121 99.6851 6.83118Z" fill="#103559"/>
<path d="M108.969 7.76093C109.96 8.26132 111.461 7.31493 112.315 5.64516C113.169 3.97538 113.06 2.21314 112.063 1.71276C111.072 1.21237 109.571 2.15875 108.717 3.82853C107.863 5.4983 107.972 7.26054 108.969 7.76093Z" fill="#103559"/>
<path d="M103.837 6.30726C104.836 6.4344 105.805 5.12591 105.998 3.38834C106.191 1.64546 105.538 0.135674 104.534 0.0085342C103.535 -0.118606 102.566 1.18988 102.373 2.92745C102.18 4.67033 102.833 6.18012 103.837 6.30726Z" fill="#103559"/>
</svg>
